<?xml version="1.0" encoding="UTF-8" standalone="no"?>
<svg
   xmlns:dc="http://purl.org/dc/elements/1.1/"
   xmlns:cc="http://creativecommons.org/ns#"
   xmlns:rdf="http://www.w3.org/1999/02/22-rdf-syntax-ns#"
   xmlns:svg="http://www.w3.org/2000/svg"
   xmlns="http://www.w3.org/2000/svg"
   xmlns:xlink="http://www.w3.org/1999/xlink"
   version="1.1"
   id="svg3953"
   height="298.66666"
   width="682.66669">
  <defs
     id="defs3955">
    <radialGradient
       r="33.5"
       fy="16.110109"
       fx="20.166895"
       cy="16.110109"
       cx="20.166895"
       gradientTransform="matrix(1.8821569,0.0271667,-0.0117681,0.81531504,378.00049,529.36756)"
       gradientUnits="userSpaceOnUse"
       id="radialGradient2586-1"
       xlink:href="#linearGradient3372-5" />
    <linearGradient
       id="linearGradient3372-5">
      <stop
         id="stop3374-0"
         offset="0"
         style="stop-color:#5d3754;stop-opacity:0.33333334;" />
      <stop
         id="stop3376-4"
         offset="1"
         style="stop-color:#5d3754;stop-opacity:1;" />
    </linearGradient>
  </defs>
  <metadata
     id="metadata3958">
    <rdf:RDF>
      <cc:Work
         rdf:about="">
        <dc:format>image/svg+xml</dc:format>
        <dc:type
           rdf:resource="http://purl.org/dc/dcmitype/StillImage" />
        <dc:title></dc:title>
      </cc:Work>
    </rdf:RDF>
  </metadata>
  <g
     transform="translate(0,-213.33333)"
     id="layer1">
    <g
       id="flowRoot3050"
       style="font-style:normal;font-weight:normal;line-height:0.01%;font-family:sans-serif;letter-spacing:0px;word-spacing:0px;fill:#0072ce;fill-opacity:1;stroke:none"
       transform="matrix(1.5172481,0,0,1.5599334,-317.16988,27.906614)"
       aria-label="CSi">
      <path
         id="path1882"
         style="font-style:normal;font-variant:normal;font-weight:normal;font-stretch:normal;font-size:144px;line-height:1.25;font-family:'Nimbus Roman No9 L';-inkscape-font-specification:'Nimbus Roman No9 L';fill:#0072ce;fill-opacity:1"
         d="m 306.78,188.83867 -1.296,-32.544 h -3.024 c -0.864,3.024 -3.168,4.752 -6.048,4.752 -1.296,0 -3.456,-0.432 -5.616,-1.296 -7.056,-2.304 -14.256,-3.456 -21.024,-3.456 -11.808,0 -23.76,4.464 -32.688,12.384 -10.08,8.928 -15.552,22.32 -15.552,38.16 0,13.392 4.32,25.776 11.664,33.984 8.64,9.36 21.888,14.832 36.144,14.832 16.272,0 30.528,-6.624 39.312,-18.288 l -2.592,-2.592 c -10.656,10.224 -20.16,14.544 -32.112,14.544 -9.072,0 -17.136,-2.88 -23.328,-8.352 -7.92,-7.056 -12.384,-20.016 -12.384,-36 0,-26.064 13.392,-42.912 34.272,-42.912 8.208,0 15.696,3.024 21.456,8.784 4.608,4.608 6.768,8.64 9.504,18 z" />
      <path
         id="path1884"
         style="font-style:normal;font-variant:normal;font-weight:normal;font-stretch:normal;font-size:144px;line-height:1.25;font-family:'Nimbus Roman No9 L';-inkscape-font-specification:'Nimbus Roman No9 L';fill:#0072ce;fill-opacity:1"
         d="m 378.0555,156.29467 h -3.024 c -0.576,3.312 -2.16,4.896 -4.608,4.896 -1.44,0 -3.888,-0.576 -6.336,-1.728 -5.328,-2.016 -10.656,-3.168 -15.264,-3.168 -6.192,0 -12.528,2.448 -17.28,6.624 -5.04,4.464 -7.632,10.512 -7.632,18 0,11.52 6.336,19.584 22.464,28.08 10.368,5.472 17.856,11.376 21.456,16.848 1.296,1.872 2.016,4.896 2.016,8.352 0,9.648 -7.2,16.272 -17.712,16.272 -12.816,0 -21.888,-7.92 -29.088,-25.488 h -3.312 l 4.32,30.528 h 3.168 c 0.144,-2.736 1.872,-4.752 4.032,-4.752 1.584,0 4.032,0.576 6.768,1.584 5.472,2.16 11.232,3.312 16.992,3.312 16.56,0 29.376,-11.376 29.376,-26.208 0,-11.808 -7.92,-21.168 -26.928,-31.392 -15.12,-8.352 -21.168,-14.688 -21.168,-22.464 0,-7.92 6.048,-13.392 14.976,-13.392 6.48,0 12.528,2.736 17.568,7.92 4.464,4.608 6.48,8.352 8.784,16.848 h 3.6 z" />
      <path
         id="path1886"
         style="font-style:normal;font-variant:normal;font-weight:normal;font-stretch:normal;font-size:144px;line-height:1.25;font-family:'Nimbus Roman No9 L';-inkscape-font-specification:'Nimbus Roman No9 L';fill:#0072ce;fill-opacity:1"
         d="m 419.04375,187.39867 -22.32,7.92 v 2.16 l 1.152,-0.144 c 1.728,-0.288 3.6,-0.432 4.896,-0.432 3.456,0 4.752,2.304 4.752,8.64 v 33.408 c 0,10.368 -1.44,11.952 -11.376,12.528 v 2.16 h 34.128 v -2.16 c -9.504,-0.72 -10.656,-2.16 -10.656,-12.528 v -51.12 z m -6.768,-32.112 c -3.888,0 -7.2,3.312 -7.2,7.344 0,4.032 3.168,7.344 7.2,7.344 4.176,0 7.488,-3.168 7.488,-7.344 0,-4.032 -3.312,-7.344 -7.488,-7.344 z" />
    </g>
    <g
       id="flowRoot3058"
       style="font-style:normal;font-weight:normal;line-height:0.01%;font-family:sans-serif;letter-spacing:0px;word-spacing:0px;fill:#2d2926;fill-opacity:1;stroke:none"
       transform="matrix(1.14865,0,0,1.5599334,-68.112759,85.289871)"
       aria-label="Compact
Software
International, S.A.">
      <path
         id="path1889"
         style="font-style:normal;font-variant:normal;font-weight:normal;font-stretch:normal;font-size:36px;line-height:97.00000286%;font-family:'Nimbus Roman No9 L';-inkscape-font-specification:'Nimbus Roman No9 L';fill:#2d2926;fill-opacity:1"
         d="m 394.46258,136.44115 -0.324,-8.136 h -0.756 c -0.216,0.756 -0.792,1.188 -1.512,1.188 -0.324,0 -0.864,-0.108 -1.404,-0.324 -1.764,-0.576 -3.564,-0.864 -5.256,-0.864 -2.952,0 -5.94,1.116 -8.172,3.096 -2.52,2.232 -3.888,5.58 -3.888,9.54 0,3.348 1.08,6.444 2.916,8.496 2.16,2.34 5.472,3.708 9.036,3.708 4.068,0 7.632,-1.656 9.828,-4.572 l -0.648,-0.648 c -2.664,2.556 -5.04,3.636 -8.028,3.636 -2.268,0 -4.284,-0.72 -5.832,-2.088 -1.98,-1.764 -3.096,-5.004 -3.096,-9 0,-6.516 3.348,-10.728 8.568,-10.728 2.052,0 3.924,0.756 5.364,2.196 1.152,1.152 1.692,2.16 2.376,4.5 z" />
      <path
         id="path1891"
         style="font-style:normal;font-variant:normal;font-weight:normal;font-stretch:normal;font-size:36px;line-height:97.00000286%;font-family:'Nimbus Roman No9 L';-inkscape-font-specification:'Nimbus Roman No9 L';fill:#2d2926;fill-opacity:1"
         d="m 405.18945,136.08115 c -4.68,0 -7.956,3.456 -7.956,8.424 0,4.86 3.348,8.496 7.884,8.496 4.536,0 7.992,-3.816 7.992,-8.784 0,-4.716 -3.312,-8.136 -7.92,-8.136 z m -0.468,1.008 c 3.024,0 5.148,3.456 5.148,8.388 0,4.068 -1.62,6.516 -4.32,6.516 -1.404,0 -2.736,-0.864 -3.492,-2.304 -1.008,-1.872 -1.584,-4.392 -1.584,-6.948 0,-3.42 1.692,-5.652 4.248,-5.652 z" />
      <path
         id="path1893"
         style="font-style:normal;font-variant:normal;font-weight:normal;font-stretch:normal;font-size:36px;line-height:97.00000286%;font-family:'Nimbus Roman No9 L';-inkscape-font-specification:'Nimbus Roman No9 L';fill:#2d2926;fill-opacity:1"
         d="m 414.87345,138.31315 c 0.468,-0.108 0.756,-0.144 1.152,-0.144 0.936,0 1.26,0.576 1.26,2.304 v 9.108 c 0,1.944 -0.504,2.484 -2.52,2.52 v 0.54 h 7.992 v -0.54 c -1.908,-0.072 -2.448,-0.468 -2.448,-1.872 v -10.152 c 0,-0.072 0.288,-0.432 0.54,-0.684 0.9,-0.828 2.448,-1.44 3.708,-1.44 1.584,0 2.376,1.26 2.376,3.78 v 7.812 c 0,2.016 -0.396,2.412 -2.448,2.556 v 0.54 h 8.064 v -0.54 c -2.052,-0.036 -2.592,-0.648 -2.592,-2.88 v -9.072 c 1.08,-1.548 2.268,-2.196 3.924,-2.196 2.052,0 2.7,0.972 2.7,3.96 v 7.596 c 0,2.052 -0.288,2.34 -2.376,2.592 v 0.54 h 7.884 v -0.54 l -0.936,-0.072 c -1.08,-0.072 -1.548,-0.72 -1.548,-2.124 v -7.416 c 0,-4.248 -1.404,-6.408 -4.176,-6.408 -2.088,0 -3.924,0.936 -5.868,3.024 -0.648,-2.052 -1.872,-3.024 -3.816,-3.024 -1.584,0 -2.592,0.504 -5.58,2.772 v -2.7 l -0.252,-0.072 c -1.836,0.684 -3.06,1.08 -5.04,1.62 z" />
      <path
         id="path1895"
         style="font-style:normal;font-variant:normal;font-weight:normal;font-stretch:normal;font-size:36px;line-height:97.00000286%;font-family:'Nimbus Roman No9 L';-inkscape-font-specification:'Nimbus Roman No9 L';fill:#2d2926;fill-opacity:1"
         d="m 442.49783,138.49315 c 0.324,-0.036 0.576,-0.036 0.9,-0.036 1.224,0 1.476,0.36 1.476,2.052 v 16.848 c 0,1.872 -0.396,2.268 -2.52,2.484 v 0.612 h 8.712 v -0.648 c -2.7,-0.036 -3.168,-0.432 -3.168,-2.7 v -5.652 c 1.26,1.188 2.124,1.548 3.636,1.548 4.248,0 7.56,-4.032 7.56,-9.252 0,-4.464 -2.52,-7.668 -6.012,-7.668 -2.016,0 -3.6,0.9 -5.184,2.844 v -2.772 l -0.216,-0.072 c -1.944,0.756 -3.204,1.224 -5.184,1.836 z m 5.4,2.124 c 0,-1.08 2.016,-2.376 3.672,-2.376 2.664,0 4.428,2.736 4.428,6.912 0,3.996 -1.764,6.696 -4.356,6.696 -1.692,0 -3.744,-1.296 -3.744,-2.376 z" />
      <path
         id="path1897"
         style="font-style:normal;font-variant:normal;font-weight:normal;font-stretch:normal;font-size:36px;line-height:97.00000286%;font-family:'Nimbus Roman No9 L';-inkscape-font-specification:'Nimbus Roman No9 L';fill:#2d2926;fill-opacity:1"
         d="m 476.08583,150.26515 c -0.612,0.504 -1.044,0.684 -1.584,0.684 -0.828,0 -1.08,-0.504 -1.08,-2.088 v -7.02 c 0,-1.872 -0.18,-2.916 -0.72,-3.78 -0.792,-1.296 -2.34,-1.98 -4.464,-1.98 -3.384,0 -6.048,1.764 -6.048,4.032 0,0.828 0.72,1.548 1.548,1.548 0.864,0 1.62,-0.72 1.62,-1.512 0,-0.144 -0.036,-0.324 -0.072,-0.576 -0.072,-0.324 -0.108,-0.612 -0.108,-0.864 0,-0.972 1.152,-1.764 2.592,-1.764 1.764,0 2.736,1.044 2.736,2.988 v 2.196 c -5.544,2.232 -6.156,2.52 -7.704,3.888 -0.792,0.72 -1.296,1.944 -1.296,3.132 0,2.268 1.584,3.852 3.78,3.852 1.584,0 3.06,-0.756 5.256,-2.628 0.18,1.872 0.828,2.628 2.304,2.628 1.224,0 1.98,-0.432 3.24,-1.8 z m -5.58,-2.052 c 0,1.116 -0.18,1.44 -0.936,1.872 -0.864,0.504 -1.872,0.828 -2.628,0.828 -1.26,0 -2.268,-1.224 -2.268,-2.772 v -0.144 c 0,-2.124 1.476,-3.42 5.832,-5.004 z" />
      <path
         id="path1899"
         style="font-style:normal;font-variant:normal;font-weight:normal;font-stretch:normal;font-size:36px;line-height:97.00000286%;font-family:'Nimbus Roman No9 L';-inkscape-font-specification:'Nimbus Roman No9 L';fill:#2d2926;fill-opacity:1"
         d="m 490.46277,147.02515 c -1.728,2.52 -3.024,3.384 -5.076,3.384 -3.276,0 -5.58,-2.88 -5.58,-7.02 0,-3.708 1.98,-6.264 4.896,-6.264 1.296,0 1.764,0.396 2.124,1.728 l 0.216,0.792 c 0.288,1.008 0.936,1.656 1.692,1.656 0.936,0 1.728,-0.684 1.728,-1.512 0,-2.016 -2.52,-3.708 -5.544,-3.708 -1.764,0 -3.6,0.72 -5.076,2.016 -1.8,1.584 -2.808,4.032 -2.808,6.876 0,4.68 2.844,8.028 6.84,8.028 1.62,0 3.06,-0.576 4.356,-1.692 0.972,-0.864 1.656,-1.836 2.736,-3.96 z" />
      <path
         id="path1901"
         style="font-style:normal;font-variant:normal;font-weight:normal;font-stretch:normal;font-size:36px;line-height:97.00000286%;font-family:'Nimbus Roman No9 L';-inkscape-font-specification:'Nimbus Roman No9 L';fill:#2d2926;fill-opacity:1"
         d="m 501.2757,136.44115 h -3.636 v -4.176 c 0,-0.36 -0.036,-0.468 -0.252,-0.468 -0.252,0.324 -0.468,0.648 -0.72,1.008 -1.368,1.98 -2.916,3.708 -3.492,3.852 -0.396,0.252 -0.612,0.504 -0.612,0.684 0,0.108 0.036,0.18 0.144,0.252 h 1.908 v 10.836 c 0,3.024 1.08,4.572 3.204,4.572 1.764,0 3.132,-0.864 4.32,-2.736 l -0.468,-0.396 c -0.756,0.9 -1.368,1.26 -2.16,1.26 -1.332,0 -1.872,-0.972 -1.872,-3.24 v -10.296 h 3.636 z" />
      <path
         id="path1903"
         style="font-style:normal;font-variant:normal;font-weight:normal;font-stretch:normal;font-size:36px;line-height:97.00000286%;font-family:'Nimbus Roman No9 L';-inkscape-font-specification:'Nimbus Roman No9 L';fill:#2d2926;fill-opacity:1"
         d="m 388.23458,163.22515 h -0.756 c -0.144,0.828 -0.54,1.224 -1.152,1.224 -0.36,0 -0.972,-0.144 -1.584,-0.432 -1.332,-0.504 -2.664,-0.792 -3.816,-0.792 -1.548,0 -3.132,0.612 -4.32,1.656 -1.26,1.116 -1.908,2.628 -1.908,4.5 0,2.88 1.584,4.896 5.616,7.02 2.592,1.368 4.464,2.844 5.364,4.212 0.324,0.468 0.504,1.224 0.504,2.088 0,2.412 -1.8,4.068 -4.428,4.068 -3.204,0 -5.472,-1.98 -7.272,-6.372 h -0.828 l 1.08,7.632 h 0.792 c 0.036,-0.684 0.468,-1.188 1.008,-1.188 0.396,0 1.008,0.144 1.692,0.396 1.368,0.54 2.808,0.828 4.248,0.828 4.14,0 7.344,-2.844 7.344,-6.552 0,-2.952 -1.98,-5.292 -6.732,-7.848 -3.78,-2.088 -5.292,-3.672 -5.292,-5.616 0,-1.98 1.512,-3.348 3.744,-3.348 1.62,0 3.132,0.684 4.392,1.98 1.116,1.152 1.62,2.088 2.196,4.212 h 0.9 z" />
      <path
         id="path1905"
         style="font-style:normal;font-variant:normal;font-weight:normal;font-stretch:normal;font-size:36px;line-height:97.00000286%;font-family:'Nimbus Roman No9 L';-inkscape-font-specification:'Nimbus Roman No9 L';fill:#2d2926;fill-opacity:1"
         d="m 401.18164,171.00115 c -4.68,0 -7.956,3.456 -7.956,8.424 0,4.86 3.348,8.496 7.884,8.496 4.536,0 7.992,-3.816 7.992,-8.784 0,-4.716 -3.312,-8.136 -7.92,-8.136 z m -0.468,1.008 c 3.024,0 5.148,3.456 5.148,8.388 0,4.068 -1.62,6.516 -4.32,6.516 -1.404,0 -2.736,-0.864 -3.492,-2.304 -1.008,-1.872 -1.584,-4.392 -1.584,-6.948 0,-3.42 1.692,-5.652 4.248,-5.652 z" />
      <path
         id="path1907"
         style="font-style:normal;font-variant:normal;font-weight:normal;font-stretch:normal;font-size:36px;line-height:97.00000286%;font-family:'Nimbus Roman No9 L';-inkscape-font-specification:'Nimbus Roman No9 L';fill:#2d2926;fill-opacity:1"
         d="m 421.30564,171.36115 h -4.428 v -4.176 c 0,-2.088 0.684,-3.204 2.052,-3.204 0.756,0 1.26,0.36 1.908,1.404 0.576,0.936 1.008,1.296 1.62,1.296 0.828,0 1.512,-0.648 1.512,-1.476 0,-1.296 -1.584,-2.232 -3.744,-2.232 -2.232,0 -4.14,0.972 -5.076,2.628 -0.936,1.584 -1.224,2.88 -1.26,5.76 h -2.952 v 1.152 h 2.952 v 11.304 c 0,2.628 -0.396,3.06 -2.988,3.204 v 0.54 h 9.36 v -0.54 c -2.952,-0.108 -3.348,-0.504 -3.348,-3.204 v -11.304 h 4.392 z" />
      <path
         id="path1909"
         style="font-style:normal;font-variant:normal;font-weight:normal;font-stretch:normal;font-size:36px;line-height:97.00000286%;font-family:'Nimbus Roman No9 L';-inkscape-font-specification:'Nimbus Roman No9 L';fill:#2d2926;fill-opacity:1"
         d="m 431.38508,171.36115 h -3.636 v -4.176 c 0,-0.36 -0.036,-0.468 -0.252,-0.468 -0.252,0.324 -0.468,0.648 -0.72,1.008 -1.368,1.98 -2.916,3.708 -3.492,3.852 -0.396,0.252 -0.612,0.504 -0.612,0.684 0,0.108 0.036,0.18 0.144,0.252 h 1.908 v 10.836 c 0,3.024 1.08,4.572 3.204,4.572 1.764,0 3.132,-0.864 4.32,-2.736 l -0.468,-0.396 c -0.756,0.9 -1.368,1.26 -2.16,1.26 -1.332,0 -1.872,-0.972 -1.872,-3.24 v -10.296 h 3.636 z" />
      <path
         id="path1911"
         style="font-style:normal;font-variant:normal;font-weight:normal;font-stretch:normal;font-size:36px;line-height:97.00000286%;font-family:'Nimbus Roman No9 L';-inkscape-font-specification:'Nimbus Roman No9 L';fill:#2d2926;fill-opacity:1"
         d="m 452.74545,171.36115 v 0.54 c 1.224,0.252 1.584,0.504 1.584,1.116 0,0.54 -0.216,1.404 -0.612,2.376 l -3.24,7.992 -3.024,-8.064 c -0.612,-1.656 -0.612,-1.656 -0.612,-2.124 0,-0.792 0.396,-1.044 2.088,-1.296 v -0.54 h -7.308 v 0.54 c 1.332,0.144 1.764,0.54 2.484,2.484 0.252,0.684 0.504,1.368 0.72,2.016 l -3.276,7.164 -3.564,-9.396 c -0.144,-0.36 -0.216,-0.72 -0.216,-1.08 0,-0.756 0.432,-1.044 1.656,-1.188 v -0.54 h -6.48 v 0.54 c 0.828,0.072 1.116,0.432 1.908,2.268 l 4.86,12.312 c 0.432,1.08 0.72,1.584 0.936,1.584 0.18,0 0.468,-0.468 0.9,-1.404 l 4.032,-8.64 3.276,8.496 c 0.504,1.332 0.648,1.548 0.864,1.548 0.252,0 0.432,-0.324 1.008,-1.764 l 4.968,-12.456 c 0.648,-1.512 0.756,-1.692 1.476,-1.944 v -0.54 z" />
      <path
         id="path1913"
         style="font-style:normal;font-variant:normal;font-weight:normal;font-stretch:normal;font-size:36px;line-height:97.00000286%;font-family:'Nimbus Roman No9 L';-inkscape-font-specification:'Nimbus Roman No9 L';fill:#2d2926;fill-opacity:1"
         d="m 474.11708,185.18515 c -0.612,0.504 -1.044,0.684 -1.584,0.684 -0.828,0 -1.08,-0.504 -1.08,-2.088 v -7.02 c 0,-1.872 -0.18,-2.916 -0.72,-3.78 -0.792,-1.296 -2.34,-1.98 -4.464,-1.98 -3.384,0 -6.048,1.764 -6.048,4.032 0,0.828 0.72,1.548 1.548,1.548 0.864,0 1.62,-0.72 1.62,-1.512 0,-0.144 -0.036,-0.324 -0.072,-0.576 -0.072,-0.324 -0.108,-0.612 -0.108,-0.864 0,-0.972 1.152,-1.764 2.592,-1.764 1.764,0 2.736,1.044 2.736,2.988 v 2.196 c -5.544,2.232 -6.156,2.52 -7.704,3.888 -0.792,0.72 -1.296,1.944 -1.296,3.132 0,2.268 1.584,3.852 3.78,3.852 1.584,0 3.06,-0.756 5.256,-2.628 0.18,1.872 0.828,2.628 2.304,2.628 1.224,0 1.98,-0.432 3.24,-1.8 z m -5.58,-2.052 c 0,1.116 -0.18,1.44 -0.936,1.872 -0.864,0.504 -1.872,0.828 -2.628,0.828 -1.26,0 -2.268,-1.224 -2.268,-2.772 v -0.144 c 0,-2.124 1.476,-3.42 5.832,-5.004 z" />
      <path
         id="path1915"
         style="font-style:normal;font-variant:normal;font-weight:normal;font-stretch:normal;font-size:36px;line-height:97.00000286%;font-family:'Nimbus Roman No9 L';-inkscape-font-specification:'Nimbus Roman No9 L';fill:#2d2926;fill-opacity:1"
         d="m 474.41802,173.52115 c 0.504,-0.108 0.828,-0.144 1.26,-0.144 0.9,0 1.224,0.576 1.224,2.16 v 9 c 0,1.8 -0.252,2.052 -2.556,2.484 v 0.54 h 8.64 v -0.54 c -2.448,-0.108 -3.06,-0.648 -3.06,-2.7 v -8.1 c 0,-1.152 1.548,-2.952 2.52,-2.952 0.216,0 0.54,0.18 0.936,0.54 0.576,0.504 0.972,0.72 1.44,0.72 0.864,0 1.404,-0.612 1.404,-1.62 0,-1.188 -0.756,-1.908 -1.98,-1.908 -1.512,0 -2.556,0.828 -4.32,3.384 v -3.312 l -0.18,-0.072 c -1.908,0.792 -3.204,1.26 -5.328,1.944 z" />
      <path
         id="path1917"
         style="font-style:normal;font-variant:normal;font-weight:normal;font-stretch:normal;font-size:36px;line-height:97.00000286%;font-family:'Nimbus Roman No9 L';-inkscape-font-specification:'Nimbus Roman No9 L';fill:#2d2926;fill-opacity:1"
         d="m 500.87745,181.65715 c -1.728,2.736 -3.276,3.78 -5.58,3.78 -2.052,0 -3.6,-1.044 -4.644,-3.096 -0.648,-1.368 -0.9,-2.556 -0.972,-4.752 h 11.088 c -0.288,-2.34 -0.648,-3.384 -1.548,-4.536 -1.08,-1.296 -2.736,-2.052 -4.608,-2.052 -1.8,0 -3.492,0.648 -4.86,1.872 -1.692,1.476 -2.664,4.032 -2.664,6.984 0,4.968 2.592,8.064 6.732,8.064 3.42,0 6.12,-2.124 7.632,-6.012 z m -11.124,-5.22 c 0.396,-2.808 1.62,-4.14 3.816,-4.14 2.196,0 3.06,1.008 3.528,4.14 z" />
      <path
         id="path1919"
         style="font-style:normal;font-variant:normal;font-weight:normal;font-stretch:normal;font-size:36px;line-height:97.00000286%;font-family:'Nimbus Roman No9 L';-inkscape-font-specification:'Nimbus Roman No9 L';fill:#2d2926;fill-opacity:1"
         d="m 376.28258,218.55715 c 0,2.7 -0.468,3.132 -3.492,3.24 v 0.684 h 10.692 v -0.684 c -2.952,-0.108 -3.528,-0.612 -3.528,-3.24 v -15.984 c 0,-2.628 0.504,-3.096 3.528,-3.24 v -0.684 h -10.692 v 0.684 c 3.06,0.18 3.492,0.576 3.492,3.24 z" />
      <path
         id="path1921"
         style="font-style:normal;font-variant:normal;font-weight:normal;font-stretch:normal;font-size:36px;line-height:97.00000286%;font-family:'Nimbus Roman No9 L';-inkscape-font-specification:'Nimbus Roman No9 L';fill:#2d2926;fill-opacity:1"
         d="m 384.74202,208.15315 c 0.216,-0.108 0.576,-0.144 0.972,-0.144 1.008,0 1.332,0.54 1.332,2.304 v 8.928 c 0,2.052 -0.396,2.556 -2.232,2.7 v 0.54 h 7.632 v -0.54 c -1.836,-0.144 -2.376,-0.576 -2.376,-1.872 v -10.116 c 1.728,-1.62 2.52,-2.052 3.708,-2.052 1.764,0 2.628,1.116 2.628,3.492 v 7.524 c 0,2.268 -0.468,2.88 -2.268,3.024 v 0.54 h 7.488 v -0.54 c -1.764,-0.18 -2.196,-0.612 -2.196,-2.376 v -8.244 c 0,-3.384 -1.584,-5.4 -4.248,-5.4 -1.656,0 -2.772,0.612 -5.22,2.916 v -2.844 l -0.252,-0.072 c -1.764,0.648 -2.988,1.044 -4.968,1.62 z" />
      <path
         id="path1923"
         style="font-style:normal;font-variant:normal;font-weight:normal;font-stretch:normal;font-size:36px;line-height:97.00000286%;font-family:'Nimbus Roman No9 L';-inkscape-font-specification:'Nimbus Roman No9 L';fill:#2d2926;fill-opacity:1"
         d="m 411.34602,206.28115 h -3.636 v -4.176 c 0,-0.36 -0.036,-0.468 -0.252,-0.468 -0.252,0.324 -0.468,0.648 -0.72,1.008 -1.368,1.98 -2.916,3.708 -3.492,3.852 -0.396,0.252 -0.612,0.504 -0.612,0.684 0,0.108 0.036,0.18 0.144,0.252 h 1.908 v 10.836 c 0,3.024 1.08,4.572 3.204,4.572 1.764,0 3.132,-0.864 4.32,-2.736 l -0.468,-0.396 c -0.756,0.9 -1.368,1.26 -2.16,1.26 -1.332,0 -1.872,-0.972 -1.872,-3.24 v -10.296 h 3.636 z" />
      <path
         id="path1925"
         style="font-style:normal;font-variant:normal;font-weight:normal;font-stretch:normal;font-size:36px;line-height:97.00000286%;font-family:'Nimbus Roman No9 L';-inkscape-font-specification:'Nimbus Roman No9 L';fill:#2d2926;fill-opacity:1"
         d="m 426.83839,216.57715 c -1.728,2.736 -3.276,3.78 -5.58,3.78 -2.052,0 -3.6,-1.044 -4.644,-3.096 -0.648,-1.368 -0.9,-2.556 -0.972,-4.752 h 11.088 c -0.288,-2.34 -0.648,-3.384 -1.548,-4.536 -1.08,-1.296 -2.736,-2.052 -4.608,-2.052 -1.8,0 -3.492,0.648 -4.86,1.872 -1.692,1.476 -2.664,4.032 -2.664,6.984 0,4.968 2.592,8.064 6.732,8.064 3.42,0 6.12,-2.124 7.632,-6.012 z m -11.124,-5.22 c 0.396,-2.808 1.62,-4.14 3.816,-4.14 2.196,0 3.06,1.008 3.528,4.14 z" />
      <path
         id="path1927"
         style="font-style:normal;font-variant:normal;font-weight:normal;font-stretch:normal;font-size:36px;line-height:97.00000286%;font-family:'Nimbus Roman No9 L';-inkscape-font-specification:'Nimbus Roman No9 L';fill:#2d2926;fill-opacity:1"
         d="m 428.36333,208.44115 c 0.504,-0.108 0.828,-0.144 1.26,-0.144 0.9,0 1.224,0.576 1.224,2.16 v 9 c 0,1.8 -0.252,2.052 -2.556,2.484 v 0.54 h 8.64 v -0.54 c -2.448,-0.108 -3.06,-0.648 -3.06,-2.7 v -8.1 c 0,-1.152 1.548,-2.952 2.52,-2.952 0.216,0 0.54,0.18 0.936,0.54 0.576,0.504 0.972,0.72 1.44,0.72 0.864,0 1.404,-0.612 1.404,-1.62 0,-1.188 -0.756,-1.908 -1.98,-1.908 -1.512,0 -2.556,0.828 -4.32,3.384 v -3.312 l -0.18,-0.072 c -1.908,0.792 -3.204,1.26 -5.328,1.944 z" />
      <path
         id="path1929"
         style="font-style:normal;font-variant:normal;font-weight:normal;font-stretch:normal;font-size:36px;line-height:97.00000286%;font-family:'Nimbus Roman No9 L';-inkscape-font-specification:'Nimbus Roman No9 L';fill:#2d2926;fill-opacity:1"
         d="m 440.71077,208.15315 c 0.216,-0.108 0.576,-0.144 0.972,-0.144 1.008,0 1.332,0.54 1.332,2.304 v 8.928 c 0,2.052 -0.396,2.556 -2.232,2.7 v 0.54 h 7.632 v -0.54 c -1.836,-0.144 -2.376,-0.576 -2.376,-1.872 v -10.116 c 1.728,-1.62 2.52,-2.052 3.708,-2.052 1.764,0 2.628,1.116 2.628,3.492 v 7.524 c 0,2.268 -0.468,2.88 -2.268,3.024 v 0.54 h 7.488 v -0.54 c -1.764,-0.18 -2.196,-0.612 -2.196,-2.376 v -8.244 c 0,-3.384 -1.584,-5.4 -4.248,-5.4 -1.656,0 -2.772,0.612 -5.22,2.916 v -2.844 l -0.252,-0.072 c -1.764,0.648 -2.988,1.044 -4.968,1.62 z" />
      <path
         id="path1931"
         style="font-style:normal;font-variant:normal;font-weight:normal;font-stretch:normal;font-size:36px;line-height:97.00000286%;font-family:'Nimbus Roman No9 L';-inkscape-font-specification:'Nimbus Roman No9 L';fill:#2d2926;fill-opacity:1"
         d="m 474.04677,220.10515 c -0.612,0.504 -1.044,0.684 -1.584,0.684 -0.828,0 -1.08,-0.504 -1.08,-2.088 v -7.02 c 0,-1.872 -0.18,-2.916 -0.72,-3.78 -0.792,-1.296 -2.34,-1.98 -4.464,-1.98 -3.384,0 -6.048,1.764 -6.048,4.032 0,0.828 0.72,1.548 1.548,1.548 0.864,0 1.62,-0.72 1.62,-1.512 0,-0.144 -0.036,-0.324 -0.072,-0.576 -0.072,-0.324 -0.108,-0.612 -0.108,-0.864 0,-0.972 1.152,-1.764 2.592,-1.764 1.764,0 2.736,1.044 2.736,2.988 v 2.196 c -5.544,2.232 -6.156,2.52 -7.704,3.888 -0.792,0.72 -1.296,1.944 -1.296,3.132 0,2.268 1.584,3.852 3.78,3.852 1.584,0 3.06,-0.756 5.256,-2.628 0.18,1.872 0.828,2.628 2.304,2.628 1.224,0 1.98,-0.432 3.24,-1.8 z m -5.58,-2.052 c 0,1.116 -0.18,1.44 -0.936,1.872 -0.864,0.504 -1.872,0.828 -2.628,0.828 -1.26,0 -2.268,-1.224 -2.268,-2.772 v -0.144 c 0,-2.124 1.476,-3.42 5.832,-5.004 z" />
      <path
         id="path1933"
         style="font-style:normal;font-variant:normal;font-weight:normal;font-stretch:normal;font-size:36px;line-height:97.00000286%;font-family:'Nimbus Roman No9 L';-inkscape-font-specification:'Nimbus Roman No9 L';fill:#2d2926;fill-opacity:1"
         d="m 483.2757,206.28115 h -3.636 v -4.176 c 0,-0.36 -0.036,-0.468 -0.252,-0.468 -0.252,0.324 -0.468,0.648 -0.72,1.008 -1.368,1.98 -2.916,3.708 -3.492,3.852 -0.396,0.252 -0.612,0.504 -0.612,0.684 0,0.108 0.036,0.18 0.144,0.252 h 1.908 v 10.836 c 0,3.024 1.08,4.572 3.204,4.572 1.764,0 3.132,-0.864 4.32,-2.736 l -0.468,-0.396 c -0.756,0.9 -1.368,1.26 -2.16,1.26 -1.332,0 -1.872,-0.972 -1.872,-3.24 v -10.296 h 3.636 z" />
      <path
         id="path1935"
         style="font-style:normal;font-variant:normal;font-weight:normal;font-stretch:normal;font-size:36px;line-height:97.00000286%;font-family:'Nimbus Roman No9 L';-inkscape-font-specification:'Nimbus Roman No9 L';fill:#2d2926;fill-opacity:1"
         d="m 490.38008,205.92115 -5.58,1.98 v 0.54 l 0.288,-0.036 c 0.432,-0.072 0.9,-0.108 1.224,-0.108 0.864,0 1.188,0.576 1.188,2.16 v 8.352 c 0,2.592 -0.36,2.988 -2.844,3.132 v 0.54 h 8.532 v -0.54 c -2.376,-0.18 -2.664,-0.54 -2.664,-3.132 v -12.78 z m -1.692,-8.028 c -0.972,0 -1.8,0.828 -1.8,1.836 0,1.008 0.792,1.836 1.8,1.836 1.044,0 1.872,-0.792 1.872,-1.836 0,-1.008 -0.828,-1.836 -1.872,-1.836 z" />
      <path
         id="path1937"
         style="font-style:normal;font-variant:normal;font-weight:normal;font-stretch:normal;font-size:36px;line-height:97.00000286%;font-family:'Nimbus Roman No9 L';-inkscape-font-specification:'Nimbus Roman No9 L';fill:#2d2926;fill-opacity:1"
         d="m 503.06445,205.92115 c -4.68,0 -7.956,3.456 -7.956,8.424 0,4.86 3.348,8.496 7.884,8.496 4.536,0 7.992,-3.816 7.992,-8.784 0,-4.716 -3.312,-8.136 -7.92,-8.136 z m -0.468,1.008 c 3.024,0 5.148,3.456 5.148,8.388 0,4.068 -1.62,6.516 -4.32,6.516 -1.404,0 -2.736,-0.864 -3.492,-2.304 -1.008,-1.872 -1.584,-4.392 -1.584,-6.948 0,-3.42 1.692,-5.652 4.248,-5.652 z" />
      <path
         id="path1939"
         style="font-style:normal;font-variant:normal;font-weight:normal;font-stretch:normal;font-size:36px;line-height:97.00000286%;font-family:'Nimbus Roman No9 L';-inkscape-font-specification:'Nimbus Roman No9 L';fill:#2d2926;fill-opacity:1"
         d="m 512.64045,208.15315 c 0.216,-0.108 0.576,-0.144 0.972,-0.144 1.008,0 1.332,0.54 1.332,2.304 v 8.928 c 0,2.052 -0.396,2.556 -2.232,2.7 v 0.54 h 7.632 v -0.54 c -1.836,-0.144 -2.376,-0.576 -2.376,-1.872 v -10.116 c 1.728,-1.62 2.52,-2.052 3.708,-2.052 1.764,0 2.628,1.116 2.628,3.492 v 7.524 c 0,2.268 -0.468,2.88 -2.268,3.024 v 0.54 h 7.488 v -0.54 c -1.764,-0.18 -2.196,-0.612 -2.196,-2.376 v -8.244 c 0,-3.384 -1.584,-5.4 -4.248,-5.4 -1.656,0 -2.772,0.612 -5.22,2.916 v -2.844 l -0.252,-0.072 c -1.764,0.648 -2.988,1.044 -4.968,1.62 z" />
      <path
         id="path1941"
         style="font-style:normal;font-variant:normal;font-weight:normal;font-stretch:normal;font-size:36px;line-height:97.00000286%;font-family:'Nimbus Roman No9 L';-inkscape-font-specification:'Nimbus Roman No9 L';fill:#2d2926;fill-opacity:1"
         d="m 545.97645,220.10515 c -0.612,0.504 -1.044,0.684 -1.584,0.684 -0.828,0 -1.08,-0.504 -1.08,-2.088 v -7.02 c 0,-1.872 -0.18,-2.916 -0.72,-3.78 -0.792,-1.296 -2.34,-1.98 -4.464,-1.98 -3.384,0 -6.048,1.764 -6.048,4.032 0,0.828 0.72,1.548 1.548,1.548 0.864,0 1.62,-0.72 1.62,-1.512 0,-0.144 -0.036,-0.324 -0.072,-0.576 -0.072,-0.324 -0.108,-0.612 -0.108,-0.864 0,-0.972 1.152,-1.764 2.592,-1.764 1.764,0 2.736,1.044 2.736,2.988 v 2.196 c -5.544,2.232 -6.156,2.52 -7.704,3.888 -0.792,0.72 -1.296,1.944 -1.296,3.132 0,2.268 1.584,3.852 3.78,3.852 1.584,0 3.06,-0.756 5.256,-2.628 0.18,1.872 0.828,2.628 2.304,2.628 1.224,0 1.98,-0.432 3.24,-1.8 z m -5.58,-2.052 c 0,1.116 -0.18,1.44 -0.936,1.872 -0.864,0.504 -1.872,0.828 -2.628,0.828 -1.26,0 -2.268,-1.224 -2.268,-2.772 v -0.144 c 0,-2.124 1.476,-3.42 5.832,-5.004 z" />
      <path
         id="path1943"
         style="font-style:normal;font-variant:normal;font-weight:normal;font-stretch:normal;font-size:36px;line-height:97.00000286%;font-family:'Nimbus Roman No9 L';-inkscape-font-specification:'Nimbus Roman No9 L';fill:#2d2926;fill-opacity:1"
         d="m 546.70939,200.05315 h 0.216 c 0.396,-0.036 0.828,-0.072 1.116,-0.072 1.152,0 1.512,0.504 1.512,2.196 v 17.172 c 0,1.944 -0.504,2.412 -2.772,2.592 v 0.54 h 8.496 v -0.54 c -2.268,-0.144 -2.7,-0.504 -2.7,-2.484 v -21.492 l -0.144,-0.072 c -1.872,0.612 -3.24,0.972 -5.724,1.584 z" />
      <path
         id="path1945"
         style="font-style:normal;font-variant:normal;font-weight:normal;font-stretch:normal;font-size:36px;line-height:97.00000286%;font-family:'Nimbus Roman No9 L';-inkscape-font-specification:'Nimbus Roman No9 L';fill:#2d2926;fill-opacity:1"
         d="m 558.99777,227.55715 c 2.412,-1.188 4.032,-3.384 4.032,-5.544 0,-1.8 -1.26,-3.204 -2.88,-3.204 -1.26,0 -2.124,0.828 -2.124,2.052 0,1.152 0.828,1.836 2.124,1.836 0.216,0 0.468,-0.036 0.684,-0.072 0.252,-0.072 0.252,-0.072 0.288,-0.072 0.288,0 0.504,0.216 0.504,0.504 0,1.152 -1.008,2.484 -2.952,3.816 z" />
      <path
         id="path1947"
         style="font-style:normal;font-variant:normal;font-weight:normal;font-stretch:normal;font-size:36px;line-height:97.00000286%;font-family:'Nimbus Roman No9 L';-inkscape-font-specification:'Nimbus Roman No9 L';fill:#2d2926;fill-opacity:1"
         d="m 590.10177,198.14515 h -0.756 c -0.144,0.828 -0.54,1.224 -1.152,1.224 -0.36,0 -0.972,-0.144 -1.584,-0.432 -1.332,-0.504 -2.664,-0.792 -3.816,-0.792 -1.548,0 -3.132,0.612 -4.32,1.656 -1.26,1.116 -1.908,2.628 -1.908,4.5 0,2.88 1.584,4.896 5.616,7.02 2.592,1.368 4.464,2.844 5.364,4.212 0.324,0.468 0.504,1.224 0.504,2.088 0,2.412 -1.8,4.068 -4.428,4.068 -3.204,0 -5.472,-1.98 -7.272,-6.372 h -0.828 l 1.08,7.632 h 0.792 c 0.036,-0.684 0.468,-1.188 1.008,-1.188 0.396,0 1.008,0.144 1.692,0.396 1.368,0.54 2.808,0.828 4.248,0.828 4.14,0 7.344,-2.844 7.344,-6.552 0,-2.952 -1.98,-5.292 -6.732,-7.848 -3.78,-2.088 -5.292,-3.672 -5.292,-5.616 0,-1.98 1.512,-3.348 3.744,-3.348 1.62,0 3.132,0.684 4.392,1.98 1.116,1.152 1.62,2.088 2.196,4.212 h 0.9 z" />
      <path
         id="path1949"
         style="font-style:normal;font-variant:normal;font-weight:normal;font-stretch:normal;font-size:36px;line-height:97.00000286%;font-family:'Nimbus Roman No9 L';-inkscape-font-specification:'Nimbus Roman No9 L';fill:#2d2926;fill-opacity:1"
         d="m 598.54883,218.88115 c -1.08,0 -1.98,0.936 -1.98,2.052 0,1.044 0.9,1.944 1.944,1.944 1.116,0 2.052,-0.9 2.052,-1.944 0,-1.116 -0.936,-2.052 -2.016,-2.052 z" />
      <path
         id="path1951"
         style="font-style:normal;font-variant:normal;font-weight:normal;font-stretch:normal;font-size:36px;line-height:97.00000286%;font-family:'Nimbus Roman No9 L';-inkscape-font-specification:'Nimbus Roman No9 L';fill:#2d2926;fill-opacity:1"
         d="m 628.46483,221.79715 c -1.62,-0.108 -1.98,-0.468 -3.24,-3.132 l -8.964,-20.448 h -0.72 l -7.488,17.676 c -2.304,5.256 -2.736,5.832 -4.464,5.904 v 0.684 h 7.128 v -0.684 c -1.728,0 -2.448,-0.468 -2.448,-1.476 0,-0.432 0.108,-0.936 0.288,-1.404 l 1.656,-4.212 h 9.432 l 1.476,3.456 c 0.432,0.972 0.684,1.908 0.684,2.412 0,0.9 -0.612,1.188 -2.52,1.224 v 0.684 h 9.18 z m -17.64,-8.568 4.14,-9.9 4.176,9.9 z" />
      <path
         id="path1953"
         style="font-style:normal;font-variant:normal;font-weight:normal;font-stretch:normal;font-size:36px;line-height:97.00000286%;font-family:'Nimbus Roman No9 L';-inkscape-font-specification:'Nimbus Roman No9 L';fill:#2d2926;fill-opacity:1"
         d="m 633.56445,218.88115 c -1.08,0 -1.98,0.936 -1.98,2.052 0,1.044 0.9,1.944 1.944,1.944 1.116,0 2.052,-0.9 2.052,-1.944 0,-1.116 -0.936,-2.052 -2.016,-2.052 z" />
    </g>
    <path
       id="path3056"
       d="m 11.979852,262.12734 h 651.853518 -1.1067"
       style="fill:none;fill-opacity:1;stroke:#0072ce;stroke-width:2.13333344;stroke-linecap:butt;stroke-linejoin:miter;stroke-miterlimit:4;stroke-dasharray:none;stroke-opacity:1" />
    <path
       style="fill:none;fill-opacity:1;stroke:#0072ce;stroke-width:2.13333344;stroke-linecap:butt;stroke-linejoin:miter;stroke-miterlimit:4;stroke-dasharray:none;stroke-opacity:1"
       d="m 11.979852,456.00476 h 651.853518 -1.1067"
       id="path3826" />
  </g>
</svg>
